{
.appVersion = "1342";
copyright = MIT;
date = "2020-10-12 21:41:34 +0000";
designer = "Gelehrte Crest";
designerURL = blog.gelehrte.com;
familyName = "Near-Eastern";
fontMaster = (
{
ascender = 800;
capHeight = 700;
descender = -200;
id = "66F77C0D-BE36-4D74-8D0F-706B0AD53F4F";
xHeight = 500;
}
);
glyphs = (
{
glyphname = A;
lastChange = "2020-10-12 21:54:31 +0000";
layers = (
{
layerId = "66F77C0D-BE36-4D74-8D0F-706B0AD53F4F";
paths = (
{
closed = 1;
nodes = (
"160 544 OFFCURVE",
"214 416 OFFCURVE",
"214 416 CURVE",
"214 416 OFFCURVE",
"93 425 OFFCURVE",
"53 385 CURVE",
"27 358 OFFCURVE",
"31 313 OFFCURVE",
"32 275 CURVE",
"32 235 OFFCURVE",
"24 33 OFFCURVE",
"41 32 CURVE",
"51 31 OFFCURVE",
"79 138 OFFCURVE",
"99 159 CURVE",
"112 175 OFFCURVE",
"160 163 OFFCURVE",
"160 163 CURVE",
"160 163 OFFCURVE",
"185 57 OFFCURVE",
"189 30 CURVE",
"191 21 OFFCURVE",
"175 1 OFFCURVE",
"185 1 CURVE",
"198 1 OFFCURVE",
"254 3 OFFCURVE",
"254 3 CURVE",
"254 1 OFFCURVE",
"202 204 OFFCURVE",
"202 267 CURVE",
"203 308 OFFCURVE",
"223 389 OFFCURVE",
"223 389 CURVE",
"223 389 OFFCURVE",
"246 387 OFFCURVE",
"255 387 CURVE",
"269 387 OFFCURVE",
"283 372 OFFCURVE",
"283 352 CURVE",
"283 304 OFFCURVE",
"283 162 OFFCURVE",
"283 101 CURVE",
"284 51 OFFCURVE",
"359 15 OFFCURVE",
"389 6 CURVE",
"413 0 OFFCURVE",
"435 39 OFFCURVE",
"446 62 CURVE",
"456 84 OFFCURVE",
"465 139 OFFCURVE",
"465 139 CURVE",
"465 139 OFFCURVE",
"418 104 OFFCURVE",
"398 102 CURVE",
"379 101 OFFCURVE",
"343 111 OFFCURVE",
"343 131 CURVE",
"342 186 OFFCURVE",
"338 413 OFFCURVE",
"338 413 CURVE",
"343 413 OFFCURVE",
"297 434 OFFCURVE",
"280 446 CURVE",
"251 467 OFFCURVE",
"189 557 OFFCURVE",
"171 549 CURVE",
"171 549 LINE"
);
},
{
closed = 1;
nodes = (
"155 244 OFFCURVE",
"137 226 OFFCURVE",
"112 225 CURVE",
"89 225 OFFCURVE",
"64 251 OFFCURVE",
"64 274 CURVE",
"64 296 OFFCURVE",
"79 322 OFFCURVE",
"112 322 CURVE",
"128 323 OFFCURVE",
"155 313 OFFCURVE",
"155 267 CURVE",
"155 267 LINE"
);
}
);
width = 495;
}
);
unicode = 0041;
},
{
glyphname = B;
lastChange = "2020-10-12 21:54:38 +0000";
layers = (
{
layerId = "66F77C0D-BE36-4D74-8D0F-706B0AD53F4F";
paths = (
{
closed = 1;
nodes = (
"269 191 OFFCURVE",
"241 431 OFFCURVE",
"241 431 CURVE",
"241 431 OFFCURVE",
"94 523 OFFCURVE",
"55 547 CURVE",
"55 547 LINE",
"33 561 OFFCURVE",
"23 513 OFFCURVE",
"36 496 CURVE SMOOTH",
"54 472 OFFCURVE",
"123 421 OFFCURVE",
"123 421 CURVE",
"123 421 OFFCURVE",
"122 379 OFFCURVE",
"126 335 CURVE SMOOTH",
"130 292 OFFCURVE",
"139 248 OFFCURVE",
"147 238 CURVE SMOOTH",
"157 224 OFFCURVE",
"225 199 OFFCURVE",
"225 199 CURVE",
"225 199 OFFCURVE",
"230 146 OFFCURVE",
"223 113 CURVE SMOOTH",
"217 78 OFFCURVE",
"179 18 OFFCURVE",
"190 8 CURVE SMOOTH",
"198 1 OFFCURVE",
"242 37 OFFCURVE",
"255 110 CURVE SMOOTH"
);
},
{
closed = 1;
nodes = (
"218 296 OFFCURVE",
"220 281 OFFCURVE",
"211 274 CURVE SMOOTH",
"203 268 OFFCURVE",
"180 271 OFFCURVE",
"171 281 CURVE SMOOTH",
"152 303 OFFCURVE",
"148 407 OFFCURVE",
"148 407 CURVE",
"210 363 LINE",
"210 363 OFFCURVE",
"215 329 OFFCURVE",
"217 312 CURVE SMOOTH"
);
}
);
width = 289;
}
);
unicode = 0042;
},
{
glyphname = C;
lastChange = "2020-10-12 21:54:45 +0000";
layers = (
{
layerId = "66F77C0D-BE36-4D74-8D0F-706B0AD53F4F";
paths = (
{
closed = 1;
nodes = (
"28 583 OFFCURVE",
"53 581 OFFCURVE",
"70 581 CURVE",
"101 582 OFFCURVE",
"153 473 OFFCURVE",
"156 345 CURVE",
"156 267 OFFCURVE",
"136 90 OFFCURVE",
"122 65 CURVE",
"113 50 OFFCURVE",
"69 47 OFFCURVE",
"69 65 CURVE",
"67 106 OFFCURVE",
"112 233 OFFCURVE",
"112 341 CURVE",
"110 479 OFFCURVE",
"34 549 OFFCURVE",
"30 570 CURVE",
"30 570 LINE"
);
},
{
closed = 1;
nodes = (
"209 339 OFFCURVE",
"208 267 OFFCURVE",
"210 222 CURVE",
"210 168 OFFCURVE",
"222 107 OFFCURVE",
"223 37 CURVE",
"224 14 OFFCURVE",
"280 46 OFFCURVE",
"279 69 CURVE",
"278 117 OFFCURVE",
"279 273 OFFCURVE",
"279 319 CURVE",
"279 342 OFFCURVE",
"232 372 OFFCURVE",
"220 356 CURVE",
"220 356 LINE"
);
},
{
closed = 1;
nodes = (
"216 500 OFFCURVE",
"388 528 OFFCURVE",
"388 478 CURVE",
"389 444 OFFCURVE",
"378 308 OFFCURVE",
"375 258 CURVE",
"366 146 OFFCURVE",
"363 2 OFFCURVE",
"382 2 CURVE",
"410 1 OFFCURVE",
"437 133 OFFCURVE",
"436 201 CURVE",
"434 286 OFFCURVE",
"430 556 OFFCURVE",
"430 556 CURVE",
"430 556 OFFCURVE",
"215 579 OFFCURVE",
"215 550 CURVE",
"215 550 LINE"
);
}
);
width = 466;
}
);
unicode = 0043;
},
{
glyphname = D;
lastChange = "2020-10-12 21:59:04 +0000";
layers = (
{
layerId = "66F77C0D-BE36-4D74-8D0F-706B0AD53F4F";
paths = (
{
closed = 1;
nodes = (
"110 546 OFFCURVE",
"135 510 OFFCURVE",
"146 474 CURVE",
"155 449 OFFCURVE",
"165 406 OFFCURVE",
"165 406 CURVE",
"165 406 OFFCURVE",
"55 428 OFFCURVE",
"33 375 CURVE",
"18 340 OFFCURVE",
"61 267 OFFCURVE",
"62 210 CURVE",
"63 152 OFFCURVE",
"7 52 OFFCURVE",
"50 16 CURVE",
"83 -11 OFFCURVE",
"217 1 OFFCURVE",
"217 1 CURVE",
"217 167 LINE",
"306 167 LINE",
"306 167 OFFCURVE",
"320 40 OFFCURVE",
"340 12 CURVE",
"352 -3 OFFCURVE",
"399 -1 OFFCURVE",
"398 20 CURVE",
"397 64 OFFCURVE",
"370 154 OFFCURVE",
"371 213 CURVE",
"371 261 OFFCURVE",
"404 317 OFFCURVE",
"402 355 CURVE",
"399 394 OFFCURVE",
"295 443 OFFCURVE",
"285 432 CURVE",
"275 421 OFFCURVE",
"328 376 OFFCURVE",
"325 328 CURVE",
"324 296 OFFCURVE",
"306 256 OFFCURVE",
"306 256 CURVE",
"217 256 LINE",
"217 253 OFFCURVE",
"218 439 OFFCURVE",
"217 485 CURVE",
"217 524 OFFCURVE",
"127 562 OFFCURVE",
"116 552 CURVE",
"116 552 LINE"
);
},
{
closed = 1;
nodes = (
"172 65 LINE",
"172 65 OFFCURVE",
"101 55 OFFCURVE",
"84 71 CURVE",
"66 87 OFFCURVE",
"96 167 OFFCURVE",
"96 167 CURVE",
"173 167 LINE",
"173 166 LINE"
);
},
{
closed = 1;
nodes = (
"123 355 LINE",
"144 355 OFFCURVE",
"175 344 OFFCURVE",
"175 344 CURVE",
"176 256 LINE",
"93 256 LINE",
"93 256 OFFCURVE",
"75 304 OFFCURVE",
"75 321 CURVE",
"74 339 OFFCURVE",
"103 355 OFFCURVE",
"123 355 CURVE"
);
}
);
width = 432;
}
);
unicode = 0044;
},
{
glyphname = E;
lastChange = "2020-10-12 22:00:56 +0000";
layers = (
{
layerId = "66F77C0D-BE36-4D74-8D0F-706B0AD53F4F";
paths = (
{
closed = 1;
nodes = (
"33 433 OFFCURVE",
"74 432 OFFCURVE",
"89 430 CURVE",
"122 428 OFFCURVE",
"205 297 OFFCURVE",
"205 297 CURVE",
"205 297 OFFCURVE",
"139 317 OFFCURVE",
"107 309 CURVE",
"90 305 OFFCURVE",
"94 147 OFFCURVE",
"94 96 CURVE",
"94 63 OFFCURVE",
"129 13 OFFCURVE",
"119 3 CURVE",
"109 -8 OFFCURVE",
"31 5 OFFCURVE",
"31 37 CURVE",
"29 109 OFFCURVE",
"33 433 OFFCURVE",
"33 433 CURVE",
"33 433 LINE"
);
},
{
closed = 1;
nodes = (
"293 515 OFFCURVE",
"375 444 OFFCURVE",
"398 399 CURVE",
"423 350 OFFCURVE",
"431 267 OFFCURVE",
"426 201 CURVE",
"419 105 OFFCURVE",
"354 3 OFFCURVE",
"312 1 CURVE",
"270 -1 OFFCURVE",
"216 28 OFFCURVE",
"215 66 CURVE",
"215 117 OFFCURVE",
"215 247 OFFCURVE",
"215 297 CURVE",
"215 321 OFFCURVE",
"273 319 OFFCURVE",
"276 343 CURVE",
"281 384 OFFCURVE",
"273 471 OFFCURVE",
"284 495 CURVE",
"284 495 LINE"
);
},
{
closed = 1;
nodes = (
"336 307 LINE",
"299 306 OFFCURVE",
"264 275 OFFCURVE",
"255 242 CURVE",
"246 204 OFFCURVE",
"252 162 OFFCURVE",
"252 129 CURVE",
"253 96 OFFCURVE",
"290 62 OFFCURVE",
"320 63 CURVE",
"346 63 OFFCURVE",
"383 148 OFFCURVE",
"382 189 CURVE",
"381 232 OFFCURVE",
"362 308 OFFCURVE",
"336 307 CURVE"
);
}
);
width = 457;
}
);
unicode = 0045;
},
{
glyphname = F;
lastChange = "2020-10-12 22:04:44 +0000";
layers = (
{
layerId = "66F77C0D-BE36-4D74-8D0F-706B0AD53F4F";
paths = (
{
closed = 1;
nodes = (
"126 480 OFFCURVE",
"172 472 OFFCURVE",
"187 463 CURVE",
"202 454 OFFCURVE",
"219 424 OFFCURVE",
"219 409 CURVE",
"219 379 OFFCURVE",
"219 104 OFFCURVE",
"219 45 CURVE",
"218 25 OFFCURVE",
"156 21 OFFCURVE",
"157 41 CURVE",
"157 91 OFFCURVE",
"157 292 OFFCURVE",
"157 347 CURVE",
"157 363 OFFCURVE",
"125 366 OFFCURVE",
"125 381 CURVE",
"125 402 OFFCURVE",
"125 444 OFFCURVE",
"125 463 CURVE",
"126 463 LINE"
);
},
{
closed = 1;
nodes = (
"75 636 OFFCURVE",
"32 601 OFFCURVE",
"30 532 CURVE",
"29 490 OFFCURVE",
"40 470 OFFCURVE",
"62 470 CURVE",
"100 470 OFFCURVE",
"152 536 OFFCURVE",
"154 565 CURVE",
"156 603 OFFCURVE",
"130 638 OFFCURVE",
"109 637 CURVE",
"109 637 LINE"
);
},
{
closed = 1;
nodes = (
"227 636 OFFCURVE",
"217 594 OFFCURVE",
"216 571 CURVE",
"215 548 OFFCURVE",
"232 501 OFFCURVE",
"264 502 CURVE",
"301 502 OFFCURVE",
"325 551 OFFCURVE",
"326 574 CURVE",
"327 596 OFFCURVE",
"309 637 OFFCURVE",
"268 637 CURVE",
"268 637 LINE"
);
}
);
width = 356;
}
);
unicode = 0046;
},
{
glyphname = G;
lastChange = "2020-10-12 22:10:15 +0000";
layers = (
{
layerId = "66F77C0D-BE36-4D74-8D0F-706B0AD53F4F";
paths = (
{
closed = 1;
nodes = (
"174 443 OFFCURVE",
"215 347 OFFCURVE",
"245 322 CURVE",
"262 309 OFFCURVE",
"308 297 OFFCURVE",
"307 297 CURVE",
"307 297 OFFCURVE",
"306 473 OFFCURVE",
"308 503 CURVE",
"309 527 OFFCURVE",
"367 494 OFFCURVE",
"367 470 CURVE",
"367 436 OFFCURVE",
"367 285 OFFCURVE",
"367 285 CURVE",
"367 285 OFFCURVE",
"457 244 OFFCURVE",
"461 157 CURVE",
"461 110 OFFCURVE",
"449 11 OFFCURVE",
"401 11 CURVE",
"382 11 OFFCURVE",
"370 26 OFFCURVE",
"369 40 CURVE",
"368 61 OFFCURVE",
"413 115 OFFCURVE",
"413 151 CURVE",
"414 188 OFFCURVE",
"371 239 OFFCURVE",
"340 249 CURVE",
"310 259 OFFCURVE",
"245 233 OFFCURVE",
"245 197 CURVE",
"245 157 OFFCURVE",
"247 103 OFFCURVE",
"244 59 CURVE",
"242 9 OFFCURVE",
"64 -31 OFFCURVE",
"61 54 CURVE",
"61 101 OFFCURVE",
"61 203 OFFCURVE",
"61 273 CURVE",
"62 296 OFFCURVE",
"36 300 OFFCURVE",
"33 318 CURVE",
"27 347 OFFCURVE",
"31 347 OFFCURVE",
"32 379 CURVE",
"33 410 OFFCURVE",
"88 443 OFFCURVE",
"123 443 CURVE",
"123 443 LINE"
);
},
{
closed = 1;
nodes = (
"152 321 LINE",
"113 322 OFFCURVE",
"91 288 OFFCURVE",
"91 258 CURVE",
"91 220 OFFCURVE",
"91 143 OFFCURVE",
"91 107 CURVE",
"91 49 OFFCURVE",
"131 48 OFFCURVE",
"168 48 CURVE",
"188 48 OFFCURVE",
"213 79 OFFCURVE",
"215 104 CURVE",
"215 141 OFFCURVE",
"216 220 OFFCURVE",
"215 256 CURVE",
"215 286 OFFCURVE",
"173 321 OFFCURVE",
"152 321 CURVE"
);
}
);
width = 491;
}
);
unicode = 0047;
},
{
glyphname = H;
lastChange = "2020-10-12 22:17:08 +0000";
layers = (
{
layerId = "66F77C0D-BE36-4D74-8D0F-706B0AD53F4F";
paths = (
{
closed = 1;
nodes = (
"188 542 OFFCURVE",
"271 535 OFFCURVE",
"278 506 CURVE",
"278 477 OFFCURVE",
"279 339 OFFCURVE",
"278 339 CURVE",
"278 339 OFFCURVE",
"355 404 OFFCURVE",
"374 406 CURVE",
"381 407 OFFCURVE",
"429 422 OFFCURVE",
"430 402 CURVE",
"430 350 OFFCURVE",
"430 250 OFFCURVE",
"430 250 CURVE",
"492 250 LINE",
"492 250 OFFCURVE",
"492 483 OFFCURVE",
"492 531 CURVE",
"492 551 OFFCURVE",
"582 549 OFFCURVE",
"582 529 CURVE",
"582 450 OFFCURVE",
"583 121 OFFCURVE",
"582 35 CURVE",
"582 15 OFFCURVE",
"493 16 OFFCURVE",
"492 36 CURVE",
"492 68 OFFCURVE",
"492 190 OFFCURVE",
"492 190 CURVE",
"430 190 LINE",
"430 190 OFFCURVE",
"430 62 OFFCURVE",
"429 36 CURVE",
"429 16 OFFCURVE",
"376 16 OFFCURVE",
"371 35 CURVE",
"364 63 OFFCURVE",
"365 190 OFFCURVE",
"365 190 CURVE",
"279 190 LINE",
"279 190 OFFCURVE",
"279 30 OFFCURVE",
"279 6 CURVE",
"279 -17 OFFCURVE",
"215 37 OFFCURVE",
"214 66 CURVE",
"214 142 OFFCURVE",
"214 391 OFFCURVE",
"214 466 CURVE",
"214 488 OFFCURVE",
"185 512 OFFCURVE",
"187 528 CURVE",
"187 528 LINE"
);
},
{
closed = 1;
nodes = (
"30 404 LINE",
"152 404 LINE",
"152 404 OFFCURVE",
"153 364 OFFCURVE",
"153 344 CURVE",
"152 326 OFFCURVE",
"97 334 OFFCURVE",
"97 310 CURVE",
"96 258 OFFCURVE",
"98 87 OFFCURVE",
"97 38 CURVE",
"97 18 OFFCURVE",
"31 13 OFFCURVE",
"30 35 CURVE",
"30 97 OFFCURVE",
"30 404 OFFCURVE",
"30 404 CURVE"
);
}
);
width = 612;
}
);
unicode = 0048;
},
{
glyphname = I;
lastChange = "2020-10-12 22:20:19 +0000";
layers = (
{
layerId = "66F77C0D-BE36-4D74-8D0F-706B0AD53F4F";
paths = (
{
closed = 1;
nodes = (
"31 530 OFFCURVE",
"91 530 OFFCURVE",
"91 510 CURVE",
"93 432 OFFCURVE",
"90 99 OFFCURVE",
"91 21 CURVE",
"92 -1 OFFCURVE",
"30 -1 OFFCURVE",
"30 20 CURVE",
"31 102 OFFCURVE",
"30 426 OFFCURVE",
"30 511 CURVE",
"30 511 LINE"
);
},
{
closed = 1;
nodes = (
"153 533 OFFCURVE",
"228 535 OFFCURVE",
"228 509 CURVE",
"228 430 OFFCURVE",
"229 126 OFFCURVE",
"228 49 CURVE",
"228 25 OFFCURVE",
"154 27 OFFCURVE",
"154 51 CURVE",
"154 128 OFFCURVE",
"154 432 OFFCURVE",
"154 508 CURVE",
"153 508 LINE"
);
}
);
width = 258;
}
);
unicode = 0049;
},
{
glyphname = J;
lastChange = "2020-10-12 22:22:02 +0000";
layers = (
{
layerId = "66F77C0D-BE36-4D74-8D0F-706B0AD53F4F";
paths = (
{
closed = 1;
nodes = (
"228 549 OFFCURVE",
"270 569 OFFCURVE",
"288 556 CURVE",
"308 542 OFFCURVE",
"348 440 OFFCURVE",
"348 440 CURVE",
"348 440 OFFCURVE",
"391 465 OFFCURVE",
"412 467 CURVE",
"433 469 OFFCURVE",
"475 469 OFFCURVE",
"474 469 CURVE",
"475 561 LINE",
"505 561 LINE",
"505 440 LINE",
"505 440 OFFCURVE",
"458 424 OFFCURVE",
"443 406 CURVE",
"417 377 OFFCURVE",
"351 305 OFFCURVE",
"352 264 CURVE",
"352 221 OFFCURVE",
"412 199 OFFCURVE",
"410 160 CURVE",
"407 117 OFFCURVE",
"355 27 OFFCURVE",
"335 7 CURVE",
"322 -6 OFFCURVE",
"292 21 OFFCURVE",
"291 39 CURVE",
"291 106 OFFCURVE",
"291 304 OFFCURVE",
"291 385 CURVE",
"291 431 OFFCURVE",
"229 501 OFFCURVE",
"228 527 CURVE",
"228 527 LINE"
);
},
{
closed = 1;
nodes = (
"171 469 OFFCURVE",
"230 332 OFFCURVE",
"228 297 CURVE",
"227 270 OFFCURVE",
"174 275 OFFCURVE",
"164 250 CURVE",
"146 207 OFFCURVE",
"145 34 OFFCURVE",
"121 37 CURVE",
"110 39 OFFCURVE",
"73 42 OFFCURVE",
"73 69 CURVE",
"73 79 OFFCURVE",
"72 172 OFFCURVE",
"73 230 CURVE",
"74 262 OFFCURVE",
"30 294 OFFCURVE",
"30 313 CURVE",
"32 376 OFFCURVE",
"105 468 OFFCURVE",
"138 468 CURVE",
"138 468 LINE"
);
}
);
width = 535;
}
);
unicode = 004A;
},
{
glyphname = K;
lastChange = "2020-10-12 22:24:48 +0000";
layers = (
{
layerId = "66F77C0D-BE36-4D74-8D0F-706B0AD53F4F";
paths = (
{
closed = 1;
nodes = (
"30 458 OFFCURVE",
"91 452 OFFCURVE",
"91 438 CURVE",
"91 430 OFFCURVE",
"91 408 OFFCURVE",
"91 408 CURVE",
"184 408 LINE",
"185 408 OFFCURVE",
"184 416 OFFCURVE",
"185 423 CURVE",
"186 446 OFFCURVE",
"247 443 OFFCURVE",
"247 423 CURVE",
"247 363 OFFCURVE",
"247 95 OFFCURVE",
"247 40 CURVE",
"248 10 OFFCURVE",
"185 72 OFFCURVE",
"185 101 CURVE",
"184 149 OFFCURVE",
"185 315 OFFCURVE",
"185 315 CURVE",
"90 315 LINE",
"91 315 OFFCURVE",
"91 51 OFFCURVE",
"91 10 CURVE",
"90 -20 OFFCURVE",
"30 45 OFFCURVE",
"30 74 CURVE",
"30 146 OFFCURVE",
"29 375 OFFCURVE",
"30 437 CURVE",
"30 437 LINE"
);
},
{
closed = 1;
nodes = (
"307 626 OFFCURVE",
"390 431 OFFCURVE",
"401 387 CURVE",
"406 369 OFFCURVE",
"367 361 OFFCURVE",
"367 342 CURVE",
"369 291 OFFCURVE",
"367 85 OFFCURVE",
"367 41 CURVE",
"368 13 OFFCURVE",
"307 70 OFFCURVE",
"307 98 CURVE",
"307 188 OFFCURVE",
"308 519 OFFCURVE",
"307 575 CURVE",
"307 575 LINE"
);
}
);
width = 431;
}
);
unicode = 004B;
},
{
glyphname = L;
lastChange = "2020-10-12 22:25:38 +0000";
layers = (
{
layerId = "66F77C0D-BE36-4D74-8D0F-706B0AD53F4F";
paths = (
{
closed = 1;
nodes = (
"401 437 LINE",
"402 375 OFFCURVE",
"401 146 OFFCURVE",
"401 74 CURVE",
"401 45 OFFCURVE",
"341 -20 OFFCURVE",
"340 10 CURVE",
"340 51 OFFCURVE",
"340 315 OFFCURVE",
"341 315 CURVE",
"246 315 LINE",
"246 315 OFFCURVE",
"247 149 OFFCURVE",
"246 101 CURVE",
"246 72 OFFCURVE",
"183 10 OFFCURVE",
"184 40 CURVE",
"184 95 OFFCURVE",
"184 363 OFFCURVE",
"184 423 CURVE",
"184 443 OFFCURVE",
"245 446 OFFCURVE",
"246 423 CURVE",
"247 416 OFFCURVE",
"246 408 OFFCURVE",
"247 408 CURVE",
"340 408 LINE",
"340 408 OFFCURVE",
"340 430 OFFCURVE",
"340 438 CURVE",
"340 452 OFFCURVE",
"401 458 OFFCURVE",
"401 437 CURVE"
);
},
{
closed = 1;
nodes = (
"124 575 LINE",
"123 519 OFFCURVE",
"124 188 OFFCURVE",
"124 98 CURVE",
"124 70 OFFCURVE",
"63 13 OFFCURVE",
"64 41 CURVE",
"64 85 OFFCURVE",
"62 291 OFFCURVE",
"64 342 CURVE",
"64 361 OFFCURVE",
"25 369 OFFCURVE",
"30 387 CURVE",
"41 431 OFFCURVE",
"124 626 OFFCURVE",
"124 575 CURVE"
);
}
);
width = 431;
}
);
unicode = 004C;
},
{
glyphname = M;
lastChange = "2020-10-12 22:26:02 +0000";
layers = (
{
layerId = "66F77C0D-BE36-4D74-8D0F-706B0AD53F4F";
paths = (
{
closed = 1;
nodes = (
"307 527 LINE",
"306 501 OFFCURVE",
"244 431 OFFCURVE",
"244 385 CURVE",
"244 304 OFFCURVE",
"244 106 OFFCURVE",
"244 39 CURVE",
"243 21 OFFCURVE",
"213 -6 OFFCURVE",
"200 7 CURVE",
"180 27 OFFCURVE",
"128 117 OFFCURVE",
"125 160 CURVE",
"123 199 OFFCURVE",
"183 221 OFFCURVE",
"183 264 CURVE",
"184 305 OFFCURVE",
"118 377 OFFCURVE",
"92 406 CURVE",
"77 424 OFFCURVE",
"30 440 OFFCURVE",
"30 440 CURVE",
"30 561 LINE",
"60 561 LINE",
"61 469 LINE",
"60 469 OFFCURVE",
"102 469 OFFCURVE",
"123 467 CURVE",
"144 465 OFFCURVE",
"187 440 OFFCURVE",
"187 440 CURVE",
"187 440 OFFCURVE",
"227 542 OFFCURVE",
"247 556 CURVE",
"265 569 OFFCURVE",
"307 549 OFFCURVE",
"307 527 CURVE"
);
},
{
closed = 1;
nodes = (
"397 468 LINE",
"430 468 OFFCURVE",
"503 376 OFFCURVE",
"505 313 CURVE",
"505 294 OFFCURVE",
"461 262 OFFCURVE",
"462 230 CURVE",
"463 172 OFFCURVE",
"462 79 OFFCURVE",
"462 69 CURVE",
"462 42 OFFCURVE",
"425 39 OFFCURVE",
"414 37 CURVE",
"390 34 OFFCURVE",
"389 207 OFFCURVE",
"371 250 CURVE",
"361 275 OFFCURVE",
"308 270 OFFCURVE",
"307 297 CURVE",
"305 332 OFFCURVE",
"364 469 OFFCURVE",
"397 468 CURVE"
);
}
);
width = 535;
}
);
unicode = 004D;
},
{
glyphname = N;
lastChange = "2020-10-12 22:26:41 +0000";
layers = (
{
layerId = "66F77C0D-BE36-4D74-8D0F-706B0AD53F4F";
paths = (
{
closed = 1;
nodes = (
"228 511 LINE",
"228 426 OFFCURVE",
"227 102 OFFCURVE",
"228 20 CURVE",
"228 -1 OFFCURVE",
"166 -1 OFFCURVE",
"167 21 CURVE",
"168 99 OFFCURVE",
"165 432 OFFCURVE",
"167 510 CURVE",
"167 530 OFFCURVE",
"227 530 OFFCURVE",
"228 511 CURVE"
);
},
{
closed = 1;
nodes = (
"104 508 LINE",
"104 432 OFFCURVE",
"104 128 OFFCURVE",
"104 51 CURVE",
"104 27 OFFCURVE",
"30 25 OFFCURVE",
"30 49 CURVE",
"29 126 OFFCURVE",
"30 430 OFFCURVE",
"30 509 CURVE",
"30 535 OFFCURVE",
"105 533 OFFCURVE",
"105 508 CURVE"
);
}
);
width = 258;
}
);
unicode = 004E;
},
{
glyphname = O;
lastChange = "2020-10-12 22:27:35 +0000";
layers = (
{
layerId = "66F77C0D-BE36-4D74-8D0F-706B0AD53F4F";
paths = (
{
closed = 1;
nodes = (
"425 528 LINE",
"427 512 OFFCURVE",
"398 488 OFFCURVE",
"398 466 CURVE",
"398 391 OFFCURVE",
"398 142 OFFCURVE",
"398 66 CURVE",
"397 37 OFFCURVE",
"333 -17 OFFCURVE",
"333 6 CURVE",
"333 30 OFFCURVE",
"333 190 OFFCURVE",
"333 190 CURVE",
"247 190 LINE",
"247 190 OFFCURVE",
"248 63 OFFCURVE",
"241 35 CURVE",
"236 16 OFFCURVE",
"183 16 OFFCURVE",
"183 36 CURVE",
"182 62 OFFCURVE",
"182 190 OFFCURVE",
"182 190 CURVE",
"120 190 LINE",
"120 190 OFFCURVE",
"120 68 OFFCURVE",
"120 36 CURVE",
"119 16 OFFCURVE",
"30 15 OFFCURVE",
"30 35 CURVE",
"29 121 OFFCURVE",
"30 450 OFFCURVE",
"30 529 CURVE",
"30 549 OFFCURVE",
"120 551 OFFCURVE",
"120 531 CURVE",
"120 483 OFFCURVE",
"120 250 OFFCURVE",
"120 250 CURVE",
"182 250 LINE",
"182 250 OFFCURVE",
"182 350 OFFCURVE",
"182 402 CURVE",
"183 422 OFFCURVE",
"231 407 OFFCURVE",
"238 406 CURVE",
"257 404 OFFCURVE",
"334 339 OFFCURVE",
"334 339 CURVE",
"333 339 OFFCURVE",
"334 477 OFFCURVE",
"334 506 CURVE",
"341 535 OFFCURVE",
"424 542 OFFCURVE",
"425 528 CURVE"
);
},
{
closed = 1;
nodes = (
"582 404 OFFCURVE",
"582 97 OFFCURVE",
"582 35 CURVE",
"581 13 OFFCURVE",
"515 18 OFFCURVE",
"515 38 CURVE",
"514 87 OFFCURVE",
"516 258 OFFCURVE",
"515 310 CURVE",
"515 334 OFFCURVE",
"460 326 OFFCURVE",
"459 344 CURVE",
"459 364 OFFCURVE",
"460 404 OFFCURVE",
"460 404 CURVE",
"582 404 LINE",
"582 404 LINE"
);
}
);
width = 612;
}
);
unicode = 004F;
},
{
glyphname = P;
lastChange = "2020-10-12 22:28:01 +0000";
layers = (
{
layerId = "66F77C0D-BE36-4D74-8D0F-706B0AD53F4F";
paths = (
{
closed = 1;
nodes = (
"368 443 LINE",
"403 443 OFFCURVE",
"458 410 OFFCURVE",
"459 379 CURVE",
"460 347 OFFCURVE",
"464 347 OFFCURVE",
"458 318 CURVE",
"455 300 OFFCURVE",
"429 296 OFFCURVE",
"430 273 CURVE",
"430 203 OFFCURVE",
"430 101 OFFCURVE",
"430 54 CURVE",
"427 -31 OFFCURVE",
"249 9 OFFCURVE",
"247 59 CURVE",
"244 103 OFFCURVE",
"246 157 OFFCURVE",
"246 197 CURVE",
"246 233 OFFCURVE",
"181 259 OFFCURVE",
"151 249 CURVE",
"120 239 OFFCURVE",
"77 188 OFFCURVE",
"78 151 CURVE",
"78 115 OFFCURVE",
"123 61 OFFCURVE",
"122 40 CURVE",
"121 26 OFFCURVE",
"109 11 OFFCURVE",
"90 11 CURVE",
"42 11 OFFCURVE",
"30 110 OFFCURVE",
"30 157 CURVE",
"34 244 OFFCURVE",
"124 285 OFFCURVE",
"124 285 CURVE",
"124 285 OFFCURVE",
"124 436 OFFCURVE",
"124 470 CURVE",
"124 494 OFFCURVE",
"182 527 OFFCURVE",
"183 503 CURVE",
"185 473 OFFCURVE",
"184 297 OFFCURVE",
"184 297 CURVE",
"183 297 OFFCURVE",
"229 309 OFFCURVE",
"246 322 CURVE",
"276 347 OFFCURVE",
"317 443 OFFCURVE",
"368 443 CURVE"
);
},
{
closed = 1;
nodes = (
"318 321 OFFCURVE",
"276 286 OFFCURVE",
"276 256 CURVE",
"275 220 OFFCURVE",
"276 141 OFFCURVE",
"276 104 CURVE",
"278 79 OFFCURVE",
"303 48 OFFCURVE",
"323 48 CURVE",
"360 48 OFFCURVE",
"400 49 OFFCURVE",
"400 107 CURVE",
"400 143 OFFCURVE",
"400 220 OFFCURVE",
"400 258 CURVE",
"400 288 OFFCURVE",
"378 322 OFFCURVE",
"339 321 CURVE",
"339 321 LINE"
);
}
);
width = 491;
}
);
unicode = 0050;
},
{
glyphname = Q;
lastChange = "2020-10-12 22:28:26 +0000";
layers = (
{
layerId = "66F77C0D-BE36-4D74-8D0F-706B0AD53F4F";
paths = (
{
closed = 1;
nodes = (
"231 463 LINE",
"231 444 OFFCURVE",
"231 402 OFFCURVE",
"231 381 CURVE",
"231 366 OFFCURVE",
"199 363 OFFCURVE",
"199 347 CURVE",
"199 292 OFFCURVE",
"199 91 OFFCURVE",
"199 41 CURVE",
"200 21 OFFCURVE",
"138 25 OFFCURVE",
"137 45 CURVE",
"137 104 OFFCURVE",
"137 379 OFFCURVE",
"137 409 CURVE",
"137 424 OFFCURVE",
"154 454 OFFCURVE",
"169 463 CURVE",
"184 472 OFFCURVE",
"230 480 OFFCURVE",
"230 463 CURVE"
);
},
{
closed = 1;
nodes = (
"247 637 LINE",
"226 638 OFFCURVE",
"200 603 OFFCURVE",
"202 565 CURVE",
"204 536 OFFCURVE",
"256 470 OFFCURVE",
"294 470 CURVE",
"316 470 OFFCURVE",
"327 490 OFFCURVE",
"326 532 CURVE",
"324 601 OFFCURVE",
"281 636 OFFCURVE",
"247 637 CURVE"
);
},
{
closed = 1;
nodes = (
"88 637 LINE",
"47 637 OFFCURVE",
"29 596 OFFCURVE",
"30 574 CURVE",
"31 551 OFFCURVE",
"55 502 OFFCURVE",
"92 502 CURVE",
"124 501 OFFCURVE",
"141 548 OFFCURVE",
"140 571 CURVE",
"139 594 OFFCURVE",
"129 636 OFFCURVE",
"88 637 CURVE"
);
}
);
width = 356;
}
);
unicode = 0051;
},
{
glyphname = R;
lastChange = "2020-10-12 22:29:02 +0000";
layers = (
{
layerId = "66F77C0D-BE36-4D74-8D0F-706B0AD53F4F";
paths = (
{
closed = 1;
nodes = (
"424 433 LINE",
"424 433 OFFCURVE",
"428 109 OFFCURVE",
"426 37 CURVE",
"426 5 OFFCURVE",
"348 -8 OFFCURVE",
"338 3 CURVE",
"328 13 OFFCURVE",
"363 63 OFFCURVE",
"363 96 CURVE",
"363 147 OFFCURVE",
"367 305 OFFCURVE",
"350 309 CURVE",
"318 317 OFFCURVE",
"252 297 OFFCURVE",
"252 297 CURVE",
"252 297 OFFCURVE",
"335 428 OFFCURVE",
"368 430 CURVE",
"383 432 OFFCURVE",
"424 433 OFFCURVE",
"424 433 CURVE"
);
},
{
closed = 1;
nodes = (
"173 495 LINE",
"184 471 OFFCURVE",
"176 384 OFFCURVE",
"181 343 CURVE",
"184 319 OFFCURVE",
"242 321 OFFCURVE",
"242 297 CURVE",
"242 247 OFFCURVE",
"242 117 OFFCURVE",
"242 66 CURVE",
"241 28 OFFCURVE",
"187 -1 OFFCURVE",
"145 1 CURVE",
"103 3 OFFCURVE",
"38 105 OFFCURVE",
"31 201 CURVE",
"26 267 OFFCURVE",
"34 350 OFFCURVE",
"59 399 CURVE",
"82 444 OFFCURVE",
"164 515 OFFCURVE",
"173 495 CURVE"
);
},
{
closed = 1;
nodes = (
"95 308 OFFCURVE",
"76 232 OFFCURVE",
"75 189 CURVE",
"74 148 OFFCURVE",
"111 63 OFFCURVE",
"137 63 CURVE",
"167 62 OFFCURVE",
"204 96 OFFCURVE",
"205 129 CURVE",
"205 162 OFFCURVE",
"211 204 OFFCURVE",
"202 242 CURVE",
"193 275 OFFCURVE",
"158 306 OFFCURVE",
"121 307 CURVE",
"121 307 LINE"
);
}
);
width = 457;
}
);
unicode = 0052;
},
{
glyphname = S;
lastChange = "2020-10-12 22:29:24 +0000";
layers = (
{
layerId = "66F77C0D-BE36-4D74-8D0F-706B0AD53F4F";
paths = (
{
closed = 1;
nodes = (
"316 552 LINE",
"305 562 OFFCURVE",
"215 524 OFFCURVE",
"215 485 CURVE",
"214 439 OFFCURVE",
"215 253 OFFCURVE",
"215 256 CURVE",
"126 256 LINE",
"126 256 OFFCURVE",
"108 296 OFFCURVE",
"107 328 CURVE",
"104 376 OFFCURVE",
"157 421 OFFCURVE",
"147 432 CURVE",
"137 443 OFFCURVE",
"33 394 OFFCURVE",
"30 355 CURVE",
"28 317 OFFCURVE",
"61 261 OFFCURVE",
"61 213 CURVE",
"62 154 OFFCURVE",
"35 64 OFFCURVE",
"34 20 CURVE",
"33 -1 OFFCURVE",
"80 -3 OFFCURVE",
"92 12 CURVE",
"112 40 OFFCURVE",
"126 167 OFFCURVE",
"126 167 CURVE",
"215 167 LINE",
"215 1 LINE",
"215 1 OFFCURVE",
"349 -11 OFFCURVE",
"382 16 CURVE",
"425 52 OFFCURVE",
"369 152 OFFCURVE",
"370 210 CURVE",
"371 267 OFFCURVE",
"414 340 OFFCURVE",
"399 375 CURVE",
"377 428 OFFCURVE",
"267 406 OFFCURVE",
"267 406 CURVE",
"267 406 OFFCURVE",
"277 449 OFFCURVE",
"286 474 CURVE",
"297 510 OFFCURVE",
"322 546 OFFCURVE",
"316 552 CURVE"
);
},
{
closed = 1;
nodes = (
"259 167 LINE",
"336 167 LINE",
"336 167 OFFCURVE",
"366 87 OFFCURVE",
"348 71 CURVE",
"331 55 OFFCURVE",
"260 65 OFFCURVE",
"260 65 CURVE",
"259 166 LINE"
);
},
{
closed = 1;
nodes = (
"329 355 OFFCURVE",
"358 339 OFFCURVE",
"357 321 CURVE",
"357 304 OFFCURVE",
"339 256 OFFCURVE",
"339 256 CURVE",
"256 256 LINE",
"257 344 LINE",
"257 344 OFFCURVE",
"288 355 OFFCURVE",
"309 355 CURVE",
"309 355 LINE"
);
}
);
width = 432;
}
);
unicode = 0053;
},
{
glyphname = T;
lastChange = "2020-10-12 22:29:49 +0000";
layers = (
{
layerId = "66F77C0D-BE36-4D74-8D0F-706B0AD53F4F";
paths = (
{
closed = 1;
nodes = (
"436 570 LINE",
"432 549 OFFCURVE",
"356 479 OFFCURVE",
"354 341 CURVE",
"354 233 OFFCURVE",
"399 106 OFFCURVE",
"397 65 CURVE",
"397 47 OFFCURVE",
"353 50 OFFCURVE",
"344 65 CURVE",
"330 90 OFFCURVE",
"310 267 OFFCURVE",
"310 345 CURVE",
"313 473 OFFCURVE",
"365 582 OFFCURVE",
"396 581 CURVE",
"413 581 OFFCURVE",
"438 583 OFFCURVE",
"436 570 CURVE"
);
},
{
closed = 1;
nodes = (
"246 356 LINE",
"234 372 OFFCURVE",
"187 342 OFFCURVE",
"187 319 CURVE",
"187 273 OFFCURVE",
"188 117 OFFCURVE",
"187 69 CURVE",
"186 46 OFFCURVE",
"242 14 OFFCURVE",
"243 37 CURVE",
"244 107 OFFCURVE",
"256 168 OFFCURVE",
"256 222 CURVE",
"258 267 OFFCURVE",
"257 339 OFFCURVE",
"246 356 CURVE"
);
},
{
closed = 1;
nodes = (
"251 550 LINE",
"251 579 OFFCURVE",
"36 556 OFFCURVE",
"36 556 CURVE",
"36 556 OFFCURVE",
"32 286 OFFCURVE",
"30 201 CURVE",
"29 133 OFFCURVE",
"56 1 OFFCURVE",
"84 2 CURVE",
"103 2 OFFCURVE",
"100 146 OFFCURVE",
"91 258 CURVE",
"88 308 OFFCURVE",
"77 444 OFFCURVE",
"78 478 CURVE",
"78 528 OFFCURVE",
"250 500 OFFCURVE",
"251 550 CURVE"
);
}
);
width = 466;
}
);
unicode = 0054;
},
{
glyphname = U;
lastChange = "2020-10-12 22:30:22 +0000";
layers = (
{
layerId = "66F77C0D-BE36-4D74-8D0F-706B0AD53F4F";
paths = (
{
closed = 1;
nodes = (
"47 37 OFFCURVE",
"91 1 OFFCURVE",
"99 8 CURVE SMOOTH",
"110 18 OFFCURVE",
"72 78 OFFCURVE",
"66 113 CURVE SMOOTH",
"59 146 OFFCURVE",
"64 199 OFFCURVE",
"64 199 CURVE",
"64 199 OFFCURVE",
"132 224 OFFCURVE",
"142 238 CURVE SMOOTH",
"150 248 OFFCURVE",
"159 292 OFFCURVE",
"163 335 CURVE SMOOTH",
"167 379 OFFCURVE",
"166 421 OFFCURVE",
"166 421 CURVE",
"166 421 OFFCURVE",
"235 472 OFFCURVE",
"253 496 CURVE SMOOTH",
"266 513 OFFCURVE",
"256 561 OFFCURVE",
"234 547 CURVE",
"234 547 LINE",
"195 523 OFFCURVE",
"48 431 OFFCURVE",
"48 431 CURVE",
"48 431 OFFCURVE",
"20 191 OFFCURVE",
"34 110 CURVE SMOOTH"
);
},
{
closed = 1;
nodes = (
"74 329 OFFCURVE",
"79 363 OFFCURVE",
"79 363 CURVE",
"141 407 LINE",
"141 407 OFFCURVE",
"137 303 OFFCURVE",
"118 281 CURVE SMOOTH",
"109 271 OFFCURVE",
"86 268 OFFCURVE",
"78 274 CURVE SMOOTH",
"69 281 OFFCURVE",
"71 296 OFFCURVE",
"72 312 CURVE SMOOTH"
);
}
);
width = 289;
}
);
unicode = 0055;
},
{
glyphname = V;
lastChange = "2020-10-12 22:30:47 +0000";
layers = (
{
layerId = "66F77C0D-BE36-4D74-8D0F-706B0AD53F4F";
paths = (
{
closed = 1;
nodes = (
"324 549 LINE",
"306 557 OFFCURVE",
"244 467 OFFCURVE",
"215 446 CURVE",
"198 434 OFFCURVE",
"152 413 OFFCURVE",
"157 413 CURVE",
"157 413 OFFCURVE",
"153 186 OFFCURVE",
"152 131 CURVE",
"152 111 OFFCURVE",
"116 101 OFFCURVE",
"97 102 CURVE",
"77 104 OFFCURVE",
"30 139 OFFCURVE",
"30 139 CURVE",
"30 139 OFFCURVE",
"39 84 OFFCURVE",
"49 62 CURVE",
"60 39 OFFCURVE",
"82 0 OFFCURVE",
"106 6 CURVE",
"136 15 OFFCURVE",
"211 51 OFFCURVE",
"212 101 CURVE",
"212 162 OFFCURVE",
"212 304 OFFCURVE",
"212 352 CURVE",
"212 372 OFFCURVE",
"226 387 OFFCURVE",
"240 387 CURVE",
"249 387 OFFCURVE",
"272 389 OFFCURVE",
"272 389 CURVE",
"272 389 OFFCURVE",
"292 308 OFFCURVE",
"293 267 CURVE",
"293 204 OFFCURVE",
"241 1 OFFCURVE",
"241 3 CURVE",
"241 3 OFFCURVE",
"297 1 OFFCURVE",
"310 1 CURVE",
"320 1 OFFCURVE",
"304 21 OFFCURVE",
"306 30 CURVE",
"310 57 OFFCURVE",
"335 163 OFFCURVE",
"335 163 CURVE",
"335 163 OFFCURVE",
"383 175 OFFCURVE",
"396 159 CURVE",
"416 138 OFFCURVE",
"444 31 OFFCURVE",
"454 32 CURVE",
"471 33 OFFCURVE",
"463 235 OFFCURVE",
"463 275 CURVE",
"464 313 OFFCURVE",
"468 358 OFFCURVE",
"442 385 CURVE",
"402 425 OFFCURVE",
"281 416 OFFCURVE",
"281 416 CURVE",
"281 416 OFFCURVE",
"335 544 OFFCURVE",
"324 549 CURVE"
);
},
{
closed = 1;
nodes = (
"340 267 LINE",
"340 313 OFFCURVE",
"367 323 OFFCURVE",
"383 322 CURVE",
"416 322 OFFCURVE",
"431 296 OFFCURVE",
"431 274 CURVE",
"431 251 OFFCURVE",
"406 225 OFFCURVE",
"383 225 CURVE",
"358 226 OFFCURVE",
"340 244 OFFCURVE",
"340 267 CURVE"
);
}
);
width = 495;
}
);
unicode = 0056;
},
{
glyphname = a;
lastChange = "2020-10-12 22:31:54 +0000";
layers = (
{
layerId = "66F77C0D-BE36-4D74-8D0F-706B0AD53F4F";
paths = (
{
closed = 1;
nodes = (
"171 -49 LINE",
"189 -57 OFFCURVE",
"251 33 OFFCURVE",
"280 54 CURVE",
"297 66 OFFCURVE",
"343 87 OFFCURVE",
"338 87 CURVE",
"338 87 OFFCURVE",
"342 314 OFFCURVE",
"343 369 CURVE",
"343 389 OFFCURVE",
"379 399 OFFCURVE",
"398 398 CURVE",
"418 396 OFFCURVE",
"465 361 OFFCURVE",
"465 361 CURVE",
"465 361 OFFCURVE",
"456 416 OFFCURVE",
"446 438 CURVE",
"435 461 OFFCURVE",
"413 500 OFFCURVE",
"389 494 CURVE",
"359 485 OFFCURVE",
"284 449 OFFCURVE",
"283 399 CURVE",
"283 338 OFFCURVE",
"283 196 OFFCURVE",
"283 148 CURVE",
"283 128 OFFCURVE",
"269 113 OFFCURVE",
"255 113 CURVE",
"246 113 OFFCURVE",
"223 111 OFFCURVE",
"223 111 CURVE",
"223 111 OFFCURVE",
"203 192 OFFCURVE",
"202 233 CURVE",
"202 296 OFFCURVE",
"254 499 OFFCURVE",
"254 497 CURVE",
"254 497 OFFCURVE",
"198 499 OFFCURVE",
"185 499 CURVE",
"175 499 OFFCURVE",
"191 479 OFFCURVE",
"189 470 CURVE",
"185 443 OFFCURVE",
"160 337 OFFCURVE",
"160 337 CURVE",
"160 337 OFFCURVE",
"112 325 OFFCURVE",
"99 341 CURVE",
"79 362 OFFCURVE",
"51 469 OFFCURVE",
"41 468 CURVE",
"24 467 OFFCURVE",
"32 265 OFFCURVE",
"32 225 CURVE",
"31 187 OFFCURVE",
"27 142 OFFCURVE",
"53 115 CURVE",
"93 75 OFFCURVE",
"214 84 OFFCURVE",
"214 84 CURVE",
"214 84 OFFCURVE",
"160 -44 OFFCURVE",
"171 -49 CURVE"
);
},
{
closed = 1;
nodes = (
"155 233 LINE",
"155 187 OFFCURVE",
"128 177 OFFCURVE",
"112 178 CURVE",
"79 178 OFFCURVE",
"64 204 OFFCURVE",
"64 226 CURVE",
"64 249 OFFCURVE",
"89 275 OFFCURVE",
"112 275 CURVE",
"137 274 OFFCURVE",
"155 256 OFFCURVE",
"155 233 CURVE"
);
}
);
width = 495;
}
);
unicode = 0061;
},
{
glyphname = b;
lastChange = "2020-10-12 22:32:32 +0000";
layers = (
{
layerId = "66F77C0D-BE36-4D74-8D0F-706B0AD53F4F";
paths = (
{
closed = 1;
nodes = (
"242 467 OFFCURVE",
"198 503 OFFCURVE",
"190 496 CURVE SMOOTH",
"179 486 OFFCURVE",
"217 426 OFFCURVE",
"223 391 CURVE SMOOTH",
"230 358 OFFCURVE",
"225 305 OFFCURVE",
"225 305 CURVE",
"225 305 OFFCURVE",
"157 280 OFFCURVE",
"147 266 CURVE SMOOTH",
"139 256 OFFCURVE",
"130 212 OFFCURVE",
"126 169 CURVE SMOOTH",
"122 125 OFFCURVE",
"123 83 OFFCURVE",
"123 83 CURVE",
"123 83 OFFCURVE",
"54 32 OFFCURVE",
"36 8 CURVE SMOOTH",
"23 -9 OFFCURVE",
"33 -57 OFFCURVE",
"55 -43 CURVE",
"55 -43 LINE",
"94 -19 OFFCURVE",
"241 73 OFFCURVE",
"241 73 CURVE",
"241 73 OFFCURVE",
"269 313 OFFCURVE",
"255 394 CURVE SMOOTH"
);
},
{
closed = 1;
nodes = (
"215 175 OFFCURVE",
"210 141 OFFCURVE",
"210 141 CURVE",
"148 97 LINE",
"148 97 OFFCURVE",
"152 201 OFFCURVE",
"171 223 CURVE SMOOTH",
"180 233 OFFCURVE",
"203 236 OFFCURVE",
"211 230 CURVE SMOOTH",
"220 223 OFFCURVE",
"218 208 OFFCURVE",
"217 192 CURVE SMOOTH"
);
}
);
width = 289;
}
);
unicode = 0062;
},
{
glyphname = c;
lastChange = "2020-10-12 22:33:57 +0000";
layers = (
{
layerId = "66F77C0D-BE36-4D74-8D0F-706B0AD53F4F";
paths = (
{
closed = 1;
nodes = (
"30 -69 LINE",
"34 -48 OFFCURVE",
"110 22 OFFCURVE",
"112 160 CURVE",
"112 268 OFFCURVE",
"67 395 OFFCURVE",
"69 436 CURVE",
"69 454 OFFCURVE",
"113 451 OFFCURVE",
"122 436 CURVE",
"136 411 OFFCURVE",
"156 234 OFFCURVE",
"156 156 CURVE",
"153 28 OFFCURVE",
"101 -81 OFFCURVE",
"70 -80 CURVE",
"53 -80 OFFCURVE",
"28 -82 OFFCURVE",
"30 -69 CURVE"
);
},
{
closed = 1;
nodes = (
"220 145 LINE",
"232 129 OFFCURVE",
"279 159 OFFCURVE",
"279 182 CURVE",
"279 228 OFFCURVE",
"278 384 OFFCURVE",
"279 432 CURVE",
"280 455 OFFCURVE",
"224 487 OFFCURVE",
"223 464 CURVE",
"222 394 OFFCURVE",
"210 333 OFFCURVE",
"210 279 CURVE",
"208 234 OFFCURVE",
"209 162 OFFCURVE",
"220 145 CURVE"
);
},
{
closed = 1;
nodes = (
"215 -49 LINE",
"215 -78 OFFCURVE",
"430 -55 OFFCURVE",
"430 -55 CURVE",
"430 -55 OFFCURVE",
"434 215 OFFCURVE",
"436 300 CURVE",
"437 368 OFFCURVE",
"410 500 OFFCURVE",
"382 499 CURVE",
"363 499 OFFCURVE",
"366 355 OFFCURVE",
"375 243 CURVE",
"378 193 OFFCURVE",
"389 57 OFFCURVE",
"388 23 CURVE",
"388 -27 OFFCURVE",
"216 1 OFFCURVE",
"215 -49 CURVE"
);
}
);
width = 466;
}
);
unicode = 0063;
},
{
glyphname = d;
lastChange = "2020-10-12 22:36:56 +0000";
layers = (
{
layerId = "66F77C0D-BE36-4D74-8D0F-706B0AD53F4F";
paths = (
{
closed = 1;
nodes = (
"116 -59 LINE",
"127 -69 OFFCURVE",
"217 -31 OFFCURVE",
"217 8 CURVE",
"218 54 OFFCURVE",
"217 240 OFFCURVE",
"217 237 CURVE",
"306 237 LINE",
"306 237 OFFCURVE",
"324 197 OFFCURVE",
"325 165 CURVE",
"328 117 OFFCURVE",
"275 72 OFFCURVE",
"285 61 CURVE",
"295 50 OFFCURVE",
"399 99 OFFCURVE",
"402 138 CURVE",
"404 176 OFFCURVE",
"371 232 OFFCURVE",
"371 280 CURVE",
"370 339 OFFCURVE",
"397 429 OFFCURVE",
"398 473 CURVE",
"399 494 OFFCURVE",
"352 496 OFFCURVE",
"340 481 CURVE",
"320 453 OFFCURVE",
"306 326 OFFCURVE",
"306 326 CURVE",
"217 326 LINE",
"217 492 LINE",
"217 492 OFFCURVE",
"83 504 OFFCURVE",
"50 477 CURVE",
"7 441 OFFCURVE",
"63 341 OFFCURVE",
"62 283 CURVE",
"61 226 OFFCURVE",
"18 153 OFFCURVE",
"33 118 CURVE",
"55 65 OFFCURVE",
"165 87 OFFCURVE",
"165 87 CURVE",
"165 87 OFFCURVE",
"155 44 OFFCURVE",
"146 19 CURVE",
"135 -17 OFFCURVE",
"110 -53 OFFCURVE",
"116 -59 CURVE"
);
},
{
closed = 1;
nodes = (
"173 326 LINE",
"96 326 LINE",
"96 326 OFFCURVE",
"66 406 OFFCURVE",
"84 422 CURVE",
"101 438 OFFCURVE",
"172 428 OFFCURVE",
"172 428 CURVE",
"173 327 LINE"
);
},
{
closed = 1;
nodes = (
"103 138 OFFCURVE",
"74 154 OFFCURVE",
"75 172 CURVE",
"75 189 OFFCURVE",
"93 237 OFFCURVE",
"93 237 CURVE",
"176 237 LINE",
"175 149 LINE",
"175 149 OFFCURVE",
"144 138 OFFCURVE",
"123 138 CURVE",
"123 138 LINE"
);
}
);
width = 432;
}
);
unicode = 0064;
},
{
glyphname = e;
lastChange = "2020-10-12 22:37:33 +0000";
layers = (
{
layerId = "66F77C0D-BE36-4D74-8D0F-706B0AD53F4F";
paths = (
{
closed = 1;
nodes = (
"33 66 LINE",
"33 66 OFFCURVE",
"29 390 OFFCURVE",
"31 462 CURVE",
"31 494 OFFCURVE",
"109 507 OFFCURVE",
"119 496 CURVE",
"129 486 OFFCURVE",
"94 436 OFFCURVE",
"94 403 CURVE",
"94 352 OFFCURVE",
"90 194 OFFCURVE",
"107 190 CURVE",
"139 182 OFFCURVE",
"205 202 OFFCURVE",
"205 202 CURVE",
"205 202 OFFCURVE",
"122 71 OFFCURVE",
"89 69 CURVE",
"74 67 OFFCURVE",
"33 66 OFFCURVE",
"33 66 CURVE"
);
},
{
closed = 1;
nodes = (
"284 4 LINE",
"273 28 OFFCURVE",
"281 115 OFFCURVE",
"276 156 CURVE",
"273 180 OFFCURVE",
"215 178 OFFCURVE",
"215 202 CURVE",
"215 252 OFFCURVE",
"215 382 OFFCURVE",
"215 433 CURVE",
"216 471 OFFCURVE",
"270 500 OFFCURVE",
"312 498 CURVE",
"354 496 OFFCURVE",
"419 394 OFFCURVE",
"426 298 CURVE",
"431 232 OFFCURVE",
"423 149 OFFCURVE",
"398 100 CURVE",
"375 55 OFFCURVE",
"293 -16 OFFCURVE",
"284 4 CURVE"
);
},
{
closed = 1;
nodes = (
"362 191 OFFCURVE",
"381 267 OFFCURVE",
"382 310 CURVE",
"383 351 OFFCURVE",
"346 436 OFFCURVE",
"320 436 CURVE",
"290 437 OFFCURVE",
"253 403 OFFCURVE",
"252 370 CURVE",
"252 337 OFFCURVE",
"246 295 OFFCURVE",
"255 257 CURVE",
"264 224 OFFCURVE",
"299 193 OFFCURVE",
"336 192 CURVE",
"336 192 LINE"
);
}
);
width = 457;
}
);
unicode = 0065;
},
{
glyphname = f;
lastChange = "2020-10-12 22:38:08 +0000";
layers = (
{
layerId = "66F77C0D-BE36-4D74-8D0F-706B0AD53F4F";
paths = (
{
closed = 1;
nodes = (
"125 58 LINE",
"125 77 OFFCURVE",
"125 119 OFFCURVE",
"125 140 CURVE",
"125 155 OFFCURVE",
"157 158 OFFCURVE",
"157 174 CURVE",
"157 229 OFFCURVE",
"157 430 OFFCURVE",
"157 480 CURVE",
"156 500 OFFCURVE",
"218 496 OFFCURVE",
"219 476 CURVE",
"219 417 OFFCURVE",
"219 142 OFFCURVE",
"219 112 CURVE",
"219 97 OFFCURVE",
"202 67 OFFCURVE",
"187 58 CURVE",
"172 49 OFFCURVE",
"126 41 OFFCURVE",
"126 58 CURVE"
);
},
{
closed = 1;
nodes = (
"109 -116 LINE",
"130 -117 OFFCURVE",
"156 -82 OFFCURVE",
"154 -44 CURVE",
"152 -15 OFFCURVE",
"100 51 OFFCURVE",
"62 51 CURVE",
"40 51 OFFCURVE",
"29 31 OFFCURVE",
"30 -11 CURVE",
"32 -80 OFFCURVE",
"75 -115 OFFCURVE",
"109 -116 CURVE"
);
},
{
closed = 1;
nodes = (
"268 -116 LINE",
"309 -116 OFFCURVE",
"327 -75 OFFCURVE",
"326 -53 CURVE",
"325 -30 OFFCURVE",
"301 19 OFFCURVE",
"264 19 CURVE",
"232 20 OFFCURVE",
"215 -27 OFFCURVE",
"216 -50 CURVE",
"217 -73 OFFCURVE",
"227 -115 OFFCURVE",
"268 -116 CURVE"
);
}
);
width = 356;
}
);
unicode = 0066;
},
{
glyphname = g;
lastChange = "2020-10-12 22:38:41 +0000";
layers = (
{
layerId = "66F77C0D-BE36-4D74-8D0F-706B0AD53F4F";
paths = (
{
closed = 1;
nodes = (
"123 57 LINE",
"88 57 OFFCURVE",
"33 90 OFFCURVE",
"32 121 CURVE",
"31 153 OFFCURVE",
"27 153 OFFCURVE",
"33 182 CURVE",
"36 200 OFFCURVE",
"62 204 OFFCURVE",
"61 227 CURVE",
"61 297 OFFCURVE",
"61 399 OFFCURVE",
"61 446 CURVE",
"64 531 OFFCURVE",
"242 491 OFFCURVE",
"244 441 CURVE",
"247 397 OFFCURVE",
"245 343 OFFCURVE",
"245 303 CURVE",
"245 267 OFFCURVE",
"310 241 OFFCURVE",
"340 251 CURVE",
"371 261 OFFCURVE",
"414 312 OFFCURVE",
"413 349 CURVE",
"413 385 OFFCURVE",
"368 439 OFFCURVE",
"369 460 CURVE",
"370 474 OFFCURVE",
"382 489 OFFCURVE",
"401 489 CURVE",
"449 489 OFFCURVE",
"461 390 OFFCURVE",
"461 343 CURVE",
"457 256 OFFCURVE",
"367 215 OFFCURVE",
"367 215 CURVE",
"367 215 OFFCURVE",
"367 64 OFFCURVE",
"367 30 CURVE",
"367 6 OFFCURVE",
"309 -27 OFFCURVE",
"308 -3 CURVE",
"306 27 OFFCURVE",
"307 203 OFFCURVE",
"307 203 CURVE",
"308 203 OFFCURVE",
"262 191 OFFCURVE",
"245 178 CURVE",
"215 153 OFFCURVE",
"174 57 OFFCURVE",
"123 57 CURVE"
);
},
{
closed = 1;
nodes = (
"173 179 OFFCURVE",
"215 214 OFFCURVE",
"215 244 CURVE",
"216 280 OFFCURVE",
"215 359 OFFCURVE",
"215 396 CURVE",
"213 421 OFFCURVE",
"188 452 OFFCURVE",
"168 452 CURVE",
"131 452 OFFCURVE",
"91 451 OFFCURVE",
"91 393 CURVE",
"91 357 OFFCURVE",
"91 280 OFFCURVE",
"91 242 CURVE",
"91 212 OFFCURVE",
"113 178 OFFCURVE",
"152 179 CURVE",
"152 179 LINE"
);
}
);
width = 491;
}
);
unicode = 0067;
},
{
glyphname = h;
lastChange = "2020-10-12 22:46:08 +0000";
layers = (
{
layerId = "66F77C0D-BE36-4D74-8D0F-706B0AD53F4F";
paths = (
{
closed = 1;
nodes = (
"187 -35 LINE",
"185 -19 OFFCURVE",
"214 5 OFFCURVE",
"214 27 CURVE",
"214 102 OFFCURVE",
"214 351 OFFCURVE",
"214 427 CURVE",
"215 456 OFFCURVE",
"279 510 OFFCURVE",
"279 487 CURVE",
"279 463 OFFCURVE",
"279 303 OFFCURVE",
"279 303 CURVE",
"365 303 LINE",
"365 303 OFFCURVE",
"364 430 OFFCURVE",
"371 458 CURVE",
"376 477 OFFCURVE",
"429 477 OFFCURVE",
"429 457 CURVE",
"430 431 OFFCURVE",
"430 303 OFFCURVE",
"430 303 CURVE",
"492 303 LINE",
"492 303 OFFCURVE",
"492 425 OFFCURVE",
"492 457 CURVE",
"493 477 OFFCURVE",
"582 478 OFFCURVE",
"582 458 CURVE",
"583 372 OFFCURVE",
"582 43 OFFCURVE",
"582 -36 CURVE",
"582 -56 OFFCURVE",
"492 -58 OFFCURVE",
"492 -38 CURVE",
"492 10 OFFCURVE",
"492 243 OFFCURVE",
"492 243 CURVE",
"430 243 LINE",
"430 243 OFFCURVE",
"430 143 OFFCURVE",
"430 91 CURVE",
"429 71 OFFCURVE",
"381 86 OFFCURVE",
"374 87 CURVE",
"355 89 OFFCURVE",
"278 154 OFFCURVE",
"278 154 CURVE",
"279 154 OFFCURVE",
"278 16 OFFCURVE",
"278 -13 CURVE",
"271 -42 OFFCURVE",
"188 -49 OFFCURVE",
"187 -35 CURVE"
);
},
{
closed = 1;
nodes = (
"30 89 OFFCURVE",
"30 396 OFFCURVE",
"30 458 CURVE",
"31 480 OFFCURVE",
"97 475 OFFCURVE",
"97 455 CURVE",
"98 406 OFFCURVE",
"96 235 OFFCURVE",
"97 183 CURVE",
"97 159 OFFCURVE",
"152 167 OFFCURVE",
"153 149 CURVE",
"153 129 OFFCURVE",
"152 89 OFFCURVE",
"152 89 CURVE",
"30 89 LINE",
"30 89 LINE"
);
}
);
width = 612;
}
);
unicode = 0068;
},
{
glyphname = i;
lastChange = "2020-10-12 22:46:51 +0000";
layers = (
{
layerId = "66F77C0D-BE36-4D74-8D0F-706B0AD53F4F";
paths = (
{
closed = 1;
nodes = (
"30 -13 LINE",
"30 72 OFFCURVE",
"31 396 OFFCURVE",
"30 478 CURVE",
"30 499 OFFCURVE",
"92 499 OFFCURVE",
"91 477 CURVE",
"90 399 OFFCURVE",
"93 66 OFFCURVE",
"91 -12 CURVE",
"91 -32 OFFCURVE",
"31 -32 OFFCURVE",
"30 -13 CURVE"
);
},
{
closed = 1;
nodes = (
"154 -10 LINE",
"154 66 OFFCURVE",
"154 370 OFFCURVE",
"154 447 CURVE",
"154 471 OFFCURVE",
"228 473 OFFCURVE",
"228 449 CURVE",
"229 372 OFFCURVE",
"228 68 OFFCURVE",
"228 -11 CURVE",
"228 -37 OFFCURVE",
"153 -35 OFFCURVE",
"153 -10 CURVE"
);
}
);
width = 258;
}
);
unicode = 0069;
},
{
glyphname = j;
lastChange = "2020-10-12 22:47:35 +0000";
layers = (
{
layerId = "66F77C0D-BE36-4D74-8D0F-706B0AD53F4F";
paths = (
{
closed = 1;
nodes = (
"228 -29 LINE",
"229 -3 OFFCURVE",
"291 67 OFFCURVE",
"291 113 CURVE",
"291 194 OFFCURVE",
"291 392 OFFCURVE",
"291 459 CURVE",
"292 477 OFFCURVE",
"322 504 OFFCURVE",
"335 491 CURVE",
"355 471 OFFCURVE",
"407 381 OFFCURVE",
"410 338 CURVE",
"412 299 OFFCURVE",
"352 277 OFFCURVE",
"352 234 CURVE",
"351 193 OFFCURVE",
"417 121 OFFCURVE",
"443 92 CURVE",
"458 74 OFFCURVE",
"505 58 OFFCURVE",
"505 58 CURVE",
"505 -63 LINE",
"475 -63 LINE",
"474 29 LINE",
"475 29 OFFCURVE",
"433 29 OFFCURVE",
"412 31 CURVE",
"391 33 OFFCURVE",
"348 58 OFFCURVE",
"348 58 CURVE",
"348 58 OFFCURVE",
"308 -44 OFFCURVE",
"288 -58 CURVE",
"270 -71 OFFCURVE",
"228 -51 OFFCURVE",
"228 -29 CURVE"
);
},
{
closed = 1;
nodes = (
"138 30 LINE",
"105 30 OFFCURVE",
"32 122 OFFCURVE",
"30 185 CURVE",
"30 204 OFFCURVE",
"74 236 OFFCURVE",
"73 268 CURVE",
"72 326 OFFCURVE",
"73 419 OFFCURVE",
"73 429 CURVE",
"73 456 OFFCURVE",
"110 459 OFFCURVE",
"121 461 CURVE",
"145 464 OFFCURVE",
"146 291 OFFCURVE",
"164 248 CURVE",
"174 223 OFFCURVE",
"227 228 OFFCURVE",
"228 201 CURVE",
"230 166 OFFCURVE",
"171 29 OFFCURVE",
"138 30 CURVE"
);
}
);
width = 535;
}
);
unicode = 006A;
},
{
glyphname = k;
lastChange = "2020-10-12 22:48:17 +0000";
layers = (
{
layerId = "66F77C0D-BE36-4D74-8D0F-706B0AD53F4F";
paths = (
{
closed = 1;
nodes = (
"30 68 LINE",
"29 130 OFFCURVE",
"30 359 OFFCURVE",
"30 431 CURVE",
"30 460 OFFCURVE",
"90 525 OFFCURVE",
"91 495 CURVE",
"91 454 OFFCURVE",
"91 190 OFFCURVE",
"90 190 CURVE",
"185 190 LINE",
"185 190 OFFCURVE",
"184 356 OFFCURVE",
"185 404 CURVE",
"185 433 OFFCURVE",
"248 495 OFFCURVE",
"247 465 CURVE",
"247 410 OFFCURVE",
"247 142 OFFCURVE",
"247 82 CURVE",
"247 62 OFFCURVE",
"186 59 OFFCURVE",
"185 82 CURVE",
"184 89 OFFCURVE",
"185 97 OFFCURVE",
"184 97 CURVE",
"91 97 LINE",
"91 97 OFFCURVE",
"91 75 OFFCURVE",
"91 67 CURVE",
"91 53 OFFCURVE",
"30 47 OFFCURVE",
"30 68 CURVE"
);
},
{
closed = 1;
nodes = (
"307 -70 LINE",
"308 -14 OFFCURVE",
"307 317 OFFCURVE",
"307 407 CURVE",
"307 435 OFFCURVE",
"368 492 OFFCURVE",
"367 464 CURVE",
"367 420 OFFCURVE",
"369 214 OFFCURVE",
"367 163 CURVE",
"367 144 OFFCURVE",
"406 136 OFFCURVE",
"401 118 CURVE",
"390 74 OFFCURVE",
"307 -121 OFFCURVE",
"307 -70 CURVE"
);
}
);
width = 431;
}
);
unicode = 006B;
},
{
glyphname = l;
lastChange = "2020-10-12 22:48:35 +0000";
layers = (
{
layerId = "66F77C0D-BE36-4D74-8D0F-706B0AD53F4F";
paths = (
{
closed = 1;
nodes = (
"401 47 OFFCURVE",
"340 53 OFFCURVE",
"340 67 CURVE",
"340 75 OFFCURVE",
"340 97 OFFCURVE",
"340 97 CURVE",
"247 97 LINE",
"246 97 OFFCURVE",
"247 89 OFFCURVE",
"246 82 CURVE",
"245 59 OFFCURVE",
"184 62 OFFCURVE",
"184 82 CURVE",
"184 142 OFFCURVE",
"184 410 OFFCURVE",
"184 465 CURVE",
"183 495 OFFCURVE",
"246 433 OFFCURVE",
"246 404 CURVE",
"247 356 OFFCURVE",
"246 190 OFFCURVE",
"246 190 CURVE",
"341 190 LINE",
"340 190 OFFCURVE",
"340 454 OFFCURVE",
"340 495 CURVE",
"341 525 OFFCURVE",
"401 460 OFFCURVE",
"401 431 CURVE",
"401 359 OFFCURVE",
"402 130 OFFCURVE",
"401 68 CURVE",
"401 68 LINE"
);
},
{
closed = 1;
nodes = (
"124 -121 OFFCURVE",
"41 74 OFFCURVE",
"30 118 CURVE",
"25 136 OFFCURVE",
"64 144 OFFCURVE",
"64 163 CURVE",
"62 214 OFFCURVE",
"64 420 OFFCURVE",
"64 464 CURVE",
"63 492 OFFCURVE",
"124 435 OFFCURVE",
"124 407 CURVE",
"124 317 OFFCURVE",
"123 -14 OFFCURVE",
"124 -70 CURVE",
"124 -70 LINE"
);
}
);
width = 431;
}
);
unicode = 006C;
},
{
glyphname = m;
lastChange = "2020-10-12 22:51:29 +0000";
layers = (
{
layerId = "66F77C0D-BE36-4D74-8D0F-706B0AD53F4F";
paths = (
{
closed = 1;
nodes = (
"307 -51 OFFCURVE",
"265 -71 OFFCURVE",
"247 -58 CURVE",
"227 -44 OFFCURVE",
"187 58 OFFCURVE",
"187 58 CURVE",
"187 58 OFFCURVE",
"144 33 OFFCURVE",
"123 31 CURVE",
"102 29 OFFCURVE",
"60 29 OFFCURVE",
"61 29 CURVE",
"60 -63 LINE",
"30 -63 LINE",
"30 58 LINE",
"30 58 OFFCURVE",
"77 74 OFFCURVE",
"92 92 CURVE",
"118 121 OFFCURVE",
"184 193 OFFCURVE",
"183 234 CURVE",
"183 277 OFFCURVE",
"123 299 OFFCURVE",
"125 338 CURVE",
"128 381 OFFCURVE",
"180 471 OFFCURVE",
"200 491 CURVE",
"213 504 OFFCURVE",
"243 477 OFFCURVE",
"244 459 CURVE",
"244 392 OFFCURVE",
"244 194 OFFCURVE",
"244 113 CURVE",
"244 67 OFFCURVE",
"306 -3 OFFCURVE",
"307 -29 CURVE",
"307 -29 LINE"
);
},
{
closed = 1;
nodes = (
"364 29 OFFCURVE",
"305 166 OFFCURVE",
"307 201 CURVE",
"308 228 OFFCURVE",
"361 223 OFFCURVE",
"371 248 CURVE",
"389 291 OFFCURVE",
"390 464 OFFCURVE",
"414 461 CURVE",
"425 459 OFFCURVE",
"462 456 OFFCURVE",
"462 429 CURVE",
"462 419 OFFCURVE",
"463 326 OFFCURVE",
"462 268 CURVE",
"461 236 OFFCURVE",
"505 204 OFFCURVE",
"505 185 CURVE",
"503 122 OFFCURVE",
"430 30 OFFCURVE",
"397 30 CURVE",
"397 30 LINE"
);
}
);
width = 535;
}
);
unicode = 006D;
},
{
glyphname = n;
lastChange = "2020-10-12 22:51:52 +0000";
layers = (
{
layerId = "66F77C0D-BE36-4D74-8D0F-706B0AD53F4F";
paths = (
{
closed = 1;
nodes = (
"227 -32 OFFCURVE",
"167 -32 OFFCURVE",
"167 -12 CURVE",
"165 66 OFFCURVE",
"168 399 OFFCURVE",
"167 477 CURVE",
"166 499 OFFCURVE",
"228 499 OFFCURVE",
"228 478 CURVE",
"227 396 OFFCURVE",
"228 72 OFFCURVE",
"228 -13 CURVE",
"228 -13 LINE"
);
},
{
closed = 1;
nodes = (
"105 -35 OFFCURVE",
"30 -37 OFFCURVE",
"30 -11 CURVE",
"30 68 OFFCURVE",
"29 372 OFFCURVE",
"30 449 CURVE",
"30 473 OFFCURVE",
"104 471 OFFCURVE",
"104 447 CURVE",
"104 370 OFFCURVE",
"104 66 OFFCURVE",
"104 -10 CURVE",
"105 -10 LINE"
);
}
);
width = 258;
}
);
unicode = 006E;
},
{
glyphname = o;
lastChange = "2020-10-12 22:52:25 +0000";
layers = (
{
layerId = "66F77C0D-BE36-4D74-8D0F-706B0AD53F4F";
paths = (
{
closed = 1;
nodes = (
"424 -49 OFFCURVE",
"341 -42 OFFCURVE",
"334 -13 CURVE",
"334 16 OFFCURVE",
"333 154 OFFCURVE",
"334 154 CURVE",
"334 154 OFFCURVE",
"257 89 OFFCURVE",
"238 87 CURVE",
"231 86 OFFCURVE",
"183 71 OFFCURVE",
"182 91 CURVE",
"182 143 OFFCURVE",
"182 243 OFFCURVE",
"182 243 CURVE",
"120 243 LINE",
"120 243 OFFCURVE",
"120 10 OFFCURVE",
"120 -38 CURVE",
"120 -58 OFFCURVE",
"30 -56 OFFCURVE",
"30 -36 CURVE",
"30 43 OFFCURVE",
"29 372 OFFCURVE",
"30 458 CURVE",
"30 478 OFFCURVE",
"119 477 OFFCURVE",
"120 457 CURVE",
"120 425 OFFCURVE",
"120 303 OFFCURVE",
"120 303 CURVE",
"182 303 LINE",
"182 303 OFFCURVE",
"182 431 OFFCURVE",
"183 457 CURVE",
"183 477 OFFCURVE",
"236 477 OFFCURVE",
"241 458 CURVE",
"248 430 OFFCURVE",
"247 303 OFFCURVE",
"247 303 CURVE",
"333 303 LINE",
"333 303 OFFCURVE",
"333 463 OFFCURVE",
"333 487 CURVE",
"333 510 OFFCURVE",
"397 456 OFFCURVE",
"398 427 CURVE",
"398 351 OFFCURVE",
"398 102 OFFCURVE",
"398 27 CURVE",
"398 5 OFFCURVE",
"427 -19 OFFCURVE",
"425 -35 CURVE",
"425 -35 LINE"
);
},
{
closed = 1;
nodes = (
"582 89 LINE",
"460 89 LINE",
"460 89 OFFCURVE",
"459 129 OFFCURVE",
"459 149 CURVE",
"460 167 OFFCURVE",
"515 159 OFFCURVE",
"515 183 CURVE",
"516 235 OFFCURVE",
"514 406 OFFCURVE",
"515 455 CURVE",
"515 475 OFFCURVE",
"581 480 OFFCURVE",
"582 458 CURVE",
"582 396 OFFCURVE",
"582 89 OFFCURVE",
"582 89 CURVE"
);
}
);
width = 612;
}
);
unicode = 006F;
},
{
glyphname = p;
lastChange = "2020-10-12 22:52:49 +0000";
layers = (
{
layerId = "66F77C0D-BE36-4D74-8D0F-706B0AD53F4F";
paths = (
{
closed = 1;
nodes = (
"317 57 OFFCURVE",
"276 153 OFFCURVE",
"246 178 CURVE",
"229 191 OFFCURVE",
"183 203 OFFCURVE",
"184 203 CURVE",
"184 203 OFFCURVE",
"185 27 OFFCURVE",
"183 -3 CURVE",
"182 -27 OFFCURVE",
"124 6 OFFCURVE",
"124 30 CURVE",
"124 64 OFFCURVE",
"124 215 OFFCURVE",
"124 215 CURVE",
"124 215 OFFCURVE",
"34 256 OFFCURVE",
"30 343 CURVE",
"30 390 OFFCURVE",
"42 489 OFFCURVE",
"90 489 CURVE",
"109 489 OFFCURVE",
"121 474 OFFCURVE",
"122 460 CURVE",
"123 439 OFFCURVE",
"78 385 OFFCURVE",
"78 349 CURVE",
"77 312 OFFCURVE",
"120 261 OFFCURVE",
"151 251 CURVE",
"181 241 OFFCURVE",
"246 267 OFFCURVE",
"246 303 CURVE",
"246 343 OFFCURVE",
"244 397 OFFCURVE",
"247 441 CURVE",
"249 491 OFFCURVE",
"427 531 OFFCURVE",
"430 446 CURVE",
"430 399 OFFCURVE",
"430 297 OFFCURVE",
"430 227 CURVE",
"429 204 OFFCURVE",
"455 200 OFFCURVE",
"458 182 CURVE",
"464 153 OFFCURVE",
"460 153 OFFCURVE",
"459 121 CURVE",
"458 90 OFFCURVE",
"403 57 OFFCURVE",
"368 57 CURVE",
"368 57 LINE"
);
},
{
closed = 1;
nodes = (
"339 179 LINE",
"378 178 OFFCURVE",
"400 212 OFFCURVE",
"400 242 CURVE",
"400 280 OFFCURVE",
"400 357 OFFCURVE",
"400 393 CURVE",
"400 451 OFFCURVE",
"360 452 OFFCURVE",
"323 452 CURVE",
"303 452 OFFCURVE",
"278 421 OFFCURVE",
"276 396 CURVE",
"276 359 OFFCURVE",
"275 280 OFFCURVE",
"276 244 CURVE",
"276 214 OFFCURVE",
"318 179 OFFCURVE",
"339 179 CURVE"
);
}
);
width = 491;
}
);
unicode = 0070;
},
{
glyphname = q;
lastChange = "2020-10-12 22:53:14 +0000";
layers = (
{
layerId = "66F77C0D-BE36-4D74-8D0F-706B0AD53F4F";
paths = (
{
closed = 1;
nodes = (
"125 58 LINE",
"125 77 OFFCURVE",
"125 119 OFFCURVE",
"125 140 CURVE",
"125 155 OFFCURVE",
"157 158 OFFCURVE",
"157 174 CURVE",
"157 229 OFFCURVE",
"157 430 OFFCURVE",
"157 480 CURVE",
"156 500 OFFCURVE",
"218 496 OFFCURVE",
"219 476 CURVE",
"219 417 OFFCURVE",
"219 142 OFFCURVE",
"219 112 CURVE",
"219 97 OFFCURVE",
"202 67 OFFCURVE",
"187 58 CURVE",
"172 49 OFFCURVE",
"126 41 OFFCURVE",
"126 58 CURVE"
);
},
{
closed = 1;
nodes = (
"109 -116 LINE",
"130 -117 OFFCURVE",
"156 -82 OFFCURVE",
"154 -44 CURVE",
"152 -15 OFFCURVE",
"100 51 OFFCURVE",
"62 51 CURVE",
"40 51 OFFCURVE",
"29 31 OFFCURVE",
"30 -11 CURVE",
"32 -80 OFFCURVE",
"75 -115 OFFCURVE",
"109 -116 CURVE"
);
},
{
closed = 1;
nodes = (
"268 -116 LINE",
"309 -116 OFFCURVE",
"327 -75 OFFCURVE",
"326 -53 CURVE",
"325 -30 OFFCURVE",
"301 19 OFFCURVE",
"264 19 CURVE",
"232 20 OFFCURVE",
"215 -27 OFFCURVE",
"216 -50 CURVE",
"217 -73 OFFCURVE",
"227 -115 OFFCURVE",
"268 -116 CURVE"
);
}
);
width = 356;
}
);
unicode = 0071;
},
{
glyphname = r;
lastChange = "2020-10-12 22:53:38 +0000";
layers = (
{
layerId = "66F77C0D-BE36-4D74-8D0F-706B0AD53F4F";
paths = (
{
closed = 1;
nodes = (
"424 66 OFFCURVE",
"383 67 OFFCURVE",
"368 69 CURVE",
"335 71 OFFCURVE",
"252 202 OFFCURVE",
"252 202 CURVE",
"252 202 OFFCURVE",
"318 182 OFFCURVE",
"350 190 CURVE",
"367 194 OFFCURVE",
"363 352 OFFCURVE",
"363 403 CURVE",
"363 436 OFFCURVE",
"328 486 OFFCURVE",
"338 496 CURVE",
"348 507 OFFCURVE",
"426 494 OFFCURVE",
"426 462 CURVE",
"428 390 OFFCURVE",
"424 66 OFFCURVE",
"424 66 CURVE",
"424 66 LINE"
);
},
{
closed = 1;
nodes = (
"164 -16 OFFCURVE",
"82 55 OFFCURVE",
"59 100 CURVE",
"34 149 OFFCURVE",
"26 232 OFFCURVE",
"31 298 CURVE",
"38 394 OFFCURVE",
"103 496 OFFCURVE",
"145 498 CURVE",
"187 500 OFFCURVE",
"241 471 OFFCURVE",
"242 433 CURVE",
"242 382 OFFCURVE",
"242 252 OFFCURVE",
"242 202 CURVE",
"242 178 OFFCURVE",
"184 180 OFFCURVE",
"181 156 CURVE",
"176 115 OFFCURVE",
"184 28 OFFCURVE",
"173 4 CURVE",
"173 4 LINE"
);
},
{
closed = 1;
nodes = (
"121 192 LINE",
"158 193 OFFCURVE",
"193 224 OFFCURVE",
"202 257 CURVE",
"211 295 OFFCURVE",
"205 337 OFFCURVE",
"205 370 CURVE",
"204 403 OFFCURVE",
"167 437 OFFCURVE",
"137 436 CURVE",
"111 436 OFFCURVE",
"74 351 OFFCURVE",
"75 310 CURVE",
"76 267 OFFCURVE",
"95 191 OFFCURVE",
"121 192 CURVE"
);
}
);
width = 457;
}
);
unicode = 0072;
},
{
glyphname = s;
lastChange = "2020-10-12 22:54:01 +0000";
layers = (
{
layerId = "66F77C0D-BE36-4D74-8D0F-706B0AD53F4F";
paths = (
{
closed = 1;
nodes = (
"322 -53 OFFCURVE",
"297 -17 OFFCURVE",
"286 19 CURVE",
"277 44 OFFCURVE",
"267 87 OFFCURVE",
"267 87 CURVE",
"267 87 OFFCURVE",
"377 65 OFFCURVE",
"399 118 CURVE",
"414 153 OFFCURVE",
"371 226 OFFCURVE",
"370 283 CURVE",
"369 341 OFFCURVE",
"425 441 OFFCURVE",
"382 477 CURVE",
"349 504 OFFCURVE",
"215 492 OFFCURVE",
"215 492 CURVE",
"215 326 LINE",
"126 326 LINE",
"126 326 OFFCURVE",
"112 453 OFFCURVE",
"92 481 CURVE",
"80 496 OFFCURVE",
"33 494 OFFCURVE",
"34 473 CURVE",
"35 429 OFFCURVE",
"62 339 OFFCURVE",
"61 280 CURVE",
"61 232 OFFCURVE",
"28 176 OFFCURVE",
"30 138 CURVE",
"33 99 OFFCURVE",
"137 50 OFFCURVE",
"147 61 CURVE",
"157 72 OFFCURVE",
"104 117 OFFCURVE",
"107 165 CURVE",
"108 197 OFFCURVE",
"126 237 OFFCURVE",
"126 237 CURVE",
"215 237 LINE",
"215 240 OFFCURVE",
"214 54 OFFCURVE",
"215 8 CURVE",
"215 -31 OFFCURVE",
"305 -69 OFFCURVE",
"316 -59 CURVE",
"316 -59 LINE"
);
},
{
closed = 1;
nodes = (
"260 428 LINE",
"260 428 OFFCURVE",
"331 438 OFFCURVE",
"348 422 CURVE",
"366 406 OFFCURVE",
"336 326 OFFCURVE",
"336 326 CURVE",
"259 326 LINE",
"259 327 LINE"
);
},
{
closed = 1;
nodes = (
"309 138 LINE",
"288 138 OFFCURVE",
"257 149 OFFCURVE",
"257 149 CURVE",
"256 237 LINE",
"339 237 LINE",
"339 237 OFFCURVE",
"357 189 OFFCURVE",
"357 172 CURVE",
"358 154 OFFCURVE",
"329 138 OFFCURVE",
"309 138 CURVE"
);
}
);
width = 432;
}
);
unicode = 0073;
},
{
glyphname = t;
lastChange = "2020-10-12 22:54:24 +0000";
layers = (
{
layerId = "66F77C0D-BE36-4D74-8D0F-706B0AD53F4F";
paths = (
{
closed = 1;
nodes = (
"438 -82 OFFCURVE",
"413 -80 OFFCURVE",
"396 -80 CURVE",
"365 -81 OFFCURVE",
"313 28 OFFCURVE",
"310 156 CURVE",
"310 234 OFFCURVE",
"330 411 OFFCURVE",
"344 436 CURVE",
"353 451 OFFCURVE",
"397 454 OFFCURVE",
"397 436 CURVE",
"399 395 OFFCURVE",
"354 268 OFFCURVE",
"354 160 CURVE",
"356 22 OFFCURVE",
"432 -48 OFFCURVE",
"436 -69 CURVE",
"436 -69 LINE"
);
},
{
closed = 1;
nodes = (
"257 162 OFFCURVE",
"258 234 OFFCURVE",
"256 279 CURVE",
"256 333 OFFCURVE",
"244 394 OFFCURVE",
"243 464 CURVE",
"242 487 OFFCURVE",
"186 455 OFFCURVE",
"187 432 CURVE",
"188 384 OFFCURVE",
"187 228 OFFCURVE",
"187 182 CURVE",
"187 159 OFFCURVE",
"234 129 OFFCURVE",
"246 145 CURVE",
"246 145 LINE"
);
},
{
closed = 1;
nodes = (
"250 1 OFFCURVE",
"78 -27 OFFCURVE",
"78 23 CURVE",
"77 57 OFFCURVE",
"88 193 OFFCURVE",
"91 243 CURVE",
"100 355 OFFCURVE",
"103 499 OFFCURVE",
"84 499 CURVE",
"56 500 OFFCURVE",
"29 368 OFFCURVE",
"30 300 CURVE",
"32 215 OFFCURVE",
"36 -55 OFFCURVE",
"36 -55 CURVE",
"36 -55 OFFCURVE",
"251 -78 OFFCURVE",
"251 -49 CURVE",
"251 -49 LINE"
);
}
);
width = 466;
}
);
unicode = 0074;
},
{
glyphname = u;
lastChange = "2020-10-12 22:55:21 +0000";
layers = (
{
layerId = "66F77C0D-BE36-4D74-8D0F-706B0AD53F4F";
paths = (
{
closed = 1;
nodes = (
"20 313 OFFCURVE",
"48 73 OFFCURVE",
"48 73 CURVE",
"48 73 OFFCURVE",
"195 -19 OFFCURVE",
"234 -43 CURVE",
"234 -43 LINE",
"256 -57 OFFCURVE",
"266 -9 OFFCURVE",
"253 8 CURVE SMOOTH",
"235 32 OFFCURVE",
"166 83 OFFCURVE",
"166 83 CURVE",
"166 83 OFFCURVE",
"167 125 OFFCURVE",
"163 169 CURVE SMOOTH",
"159 212 OFFCURVE",
"150 256 OFFCURVE",
"142 266 CURVE SMOOTH",
"132 280 OFFCURVE",
"64 305 OFFCURVE",
"64 305 CURVE",
"64 305 OFFCURVE",
"59 358 OFFCURVE",
"66 391 CURVE SMOOTH",
"72 426 OFFCURVE",
"110 486 OFFCURVE",
"99 496 CURVE SMOOTH",
"91 503 OFFCURVE",
"47 467 OFFCURVE",
"34 394 CURVE SMOOTH"
);
},
{
closed = 1;
nodes = (
"71 208 OFFCURVE",
"69 223 OFFCURVE",
"78 230 CURVE SMOOTH",
"86 236 OFFCURVE",
"109 233 OFFCURVE",
"118 223 CURVE SMOOTH",
"137 201 OFFCURVE",
"141 97 OFFCURVE",
"141 97 CURVE",
"79 141 LINE",
"79 141 OFFCURVE",
"74 175 OFFCURVE",
"72 192 CURVE SMOOTH"
);
}
);
width = 289;
}
);
unicode = 0075;
},
{
glyphname = v;
lastChange = "2020-10-12 22:55:47 +0000";
layers = (
{
layerId = "66F77C0D-BE36-4D74-8D0F-706B0AD53F4F";
paths = (
{
closed = 1;
nodes = (
"335 -44 OFFCURVE",
"281 84 OFFCURVE",
"281 84 CURVE",
"281 84 OFFCURVE",
"402 75 OFFCURVE",
"442 115 CURVE",
"468 142 OFFCURVE",
"464 187 OFFCURVE",
"463 225 CURVE",
"463 265 OFFCURVE",
"471 467 OFFCURVE",
"454 468 CURVE",
"444 469 OFFCURVE",
"416 362 OFFCURVE",
"396 341 CURVE",
"383 325 OFFCURVE",
"335 337 OFFCURVE",
"335 337 CURVE",
"335 337 OFFCURVE",
"310 443 OFFCURVE",
"306 470 CURVE",
"304 479 OFFCURVE",
"320 499 OFFCURVE",
"310 499 CURVE",
"297 499 OFFCURVE",
"241 497 OFFCURVE",
"241 497 CURVE",
"241 499 OFFCURVE",
"293 296 OFFCURVE",
"293 233 CURVE",
"292 192 OFFCURVE",
"272 111 OFFCURVE",
"272 111 CURVE",
"272 111 OFFCURVE",
"249 113 OFFCURVE",
"240 113 CURVE",
"226 113 OFFCURVE",
"212 128 OFFCURVE",
"212 148 CURVE",
"212 196 OFFCURVE",
"212 338 OFFCURVE",
"212 399 CURVE",
"211 449 OFFCURVE",
"136 485 OFFCURVE",
"106 494 CURVE",
"82 500 OFFCURVE",
"60 461 OFFCURVE",
"49 438 CURVE",
"39 416 OFFCURVE",
"30 361 OFFCURVE",
"30 361 CURVE",
"30 361 OFFCURVE",
"77 396 OFFCURVE",
"97 398 CURVE",
"116 399 OFFCURVE",
"152 389 OFFCURVE",
"152 369 CURVE",
"153 314 OFFCURVE",
"157 87 OFFCURVE",
"157 87 CURVE",
"152 87 OFFCURVE",
"198 66 OFFCURVE",
"215 54 CURVE",
"244 33 OFFCURVE",
"306 -57 OFFCURVE",
"324 -49 CURVE",
"324 -49 LINE"
);
},
{
closed = 1;
nodes = (
"340 256 OFFCURVE",
"358 274 OFFCURVE",
"383 275 CURVE",
"406 275 OFFCURVE",
"431 249 OFFCURVE",
"431 226 CURVE",
"431 204 OFFCURVE",
"416 178 OFFCURVE",
"383 178 CURVE",
"367 177 OFFCURVE",
"340 187 OFFCURVE",
"340 233 CURVE",
"340 233 LINE"
);
}
);
width = 495;
}
);
unicode = 0076;
},
